<svg viewBox="-6 0 512 512" xmlns="http://www.w3.org/2000/svg"><path d="m110.046875 71.027344v-61.023438h280.113281l100.039063 100.042969v391.949219h-380.152344v-270.902344" fill="#f7f7f7"/><path d="m290.117188 91.765625v118.589844c0 11.453125-9.28125 20.738281-20.734376 20.738281h-238.640624c-11.453126 0-20.738282-9.285156-20.738282-20.738281v-118.589844c0-11.453125 9.285156-20.738281 20.738282-20.738281h238.640624c11.453126 0 20.734376 9.285156 20.734376 20.738281zm0 0" fill="#7df5a5"/><path d="m490.199219 110.046875h-100.039063v-100.042969zm0 0" fill="#b9b9b9"/><path d="m162.703125 374.558594c.101563 14.671875 12.121094 26.609375 26.792969 26.609375 5.523437 0 10.003906-4.480469 10.003906-10.003907 0-5.523437-4.480469-10.003906-10.003906-10.003906-3.714844 0-6.761719-3.023437-6.785156-6.738281l-.0625-8.738281c-.054688-7.855469-3.144532-15.238282-8.695313-20.789063l-3.855469-3.851562 3.570313-3.496094c5.671875-5.546875 8.925781-13.28125 8.925781-21.214844v-8.417969c0-3.742187 3.042969-6.785156 6.785156-6.785156h.117188c5.523437 0 10.003906-4.480468 10.003906-10.003906 0-5.527344-4.480469-10.003906-10.003906-10.003906h-.117188c-14.773437 0-26.792968 12.019531-26.792968 26.792968v8.417969c0 2.585938-1.0625 5.105469-2.910157 6.914063l-10.800781 10.566406c-1.910156 1.871094-2.996094 4.425781-3.007812 7.097656-.015626 2.675782 1.039062 5.242188 2.929687 7.128906l11.007813 11.007813c1.8125 1.808594 2.820312 4.214844 2.835937 6.773437zm0 0"/><path d="m440.074219 383.222656c-1.804688-1.804687-2.8125-4.207031-2.828125-6.761718l-.0625-8.730469c-.101563-14.660157-12.109375-26.589844-26.773438-26.589844-5.523437 0-10.003906 4.480469-10.003906 10.003906 0 5.527344 4.480469 10.003907 10.003906 10.003907 3.707032 0 6.742188 3.015624 6.765625 6.722656l.0625 8.730468c.054688 7.847657 3.140625 15.226563 8.691407 20.773438l3.84375 3.839844-3.5625 3.480468c-5.667969 5.546876-8.917969 13.273438-8.917969 21.203126v8.410156c0 3.730468-3.035157 6.769531-6.769531 6.769531h-.113282c-5.523437 0-10.003906 4.480469-10.003906 10.003906 0 5.523438 4.480469 10.003907 10.003906 10.003907h.113282c14.765624 0 26.777343-12.011719 26.777343-26.777344v-8.410156c0-2.578126 1.058594-5.097657 2.902344-6.898438l10.792969-10.558594c1.910156-1.867187 2.992187-4.421875 3.007812-7.097656.015625-2.671875-1.042968-5.238281-2.933594-7.128906zm0 0"/><path d="m500.1875 109.710938c-.003906-.113282-.007812-.230469-.015625-.347657-.03125-.417969-.078125-.832031-.15625-1.234375-.003906-.015625-.003906-.03125-.007813-.042968-.085937-.441407-.210937-.867188-.351562-1.289063-.027344-.078125-.058594-.15625-.085938-.234375-.148437-.390625-.3125-.773438-.503906-1.140625-.015625-.027344-.027344-.058594-.039062-.085937-.207032-.386719-.445313-.753907-.699219-1.109376-.058594-.082031-.121094-.164062-.183594-.242187-.265625-.351563-.546875-.6875-.859375-1-.003906-.003906-.007812-.007813-.011718-.011719l-100.039063-100.042968c-.003906-.003907-.011719-.007813-.015625-.011719-.308594-.308594-.644531-.589844-.992188-.851563-.085937-.066406-.167968-.128906-.253906-.191406-.351562-.25-.714844-.488281-1.101562-.691406-.03125-.019532-.066406-.03125-.101563-.050782-.359375-.1875-.738281-.347656-1.125-.492187-.078125-.03125-.160156-.0625-.242187-.089844-.417969-.144531-.84375-.265625-1.285156-.351562-.011719-.003907-.027344-.003907-.042969-.007813-.402344-.078125-.816407-.1249998-1.234375-.1523435-.117188-.0078125-.230469-.015625-.34375-.0195313-.113282-.0078124-.222656-.0195312-.335938-.0195312h-280.113281c-5.527344 0-10.003906 4.480469-10.003906 10.003906v51.019532h-69.300781c-16.953126 0-30.742188 13.792968-30.742188 30.742187v118.59375c0 16.949219 13.789062 30.738281 30.742188 30.738281h69.300781v260.898438c0 5.523437 4.476562 10.003906 10.003906 10.003906h380.152344c5.527343 0 10.007812-4.480469 10.007812-10.003906v-391.949219c0-.113281-.015625-.222656-.019531-.335937zm-100.023438-75.554688 65.882813 65.886719h-65.882813zm-280.113281 457.835938v-250.894532h14.488281c5.523438 0 10.003907-4.480468 10.003907-10.003906s-4.480469-10.003906-10.003907-10.003906h-103.796874c-5.917969 0-10.734376-4.8125-10.734376-10.734375v-118.589844c0-5.917969 4.816407-10.730469 10.734376-10.730469h238.640624c5.917969 0 10.734376 4.8125 10.734376 10.730469v118.59375c0 5.917969-4.816407 10.730469-10.734376 10.730469h-54.808593c-5.527344 0-10.003907 4.480468-10.003907 10.007812 0 5.523438 4.476563 10.003906 10.003907 10.003906h54.808593c16.949219 0 30.742188-13.792968 30.742188-30.742187v-118.59375c0-16.949219-13.792969-30.742187-30.742188-30.742187h-149.332031v-41.015626h260.105469v90.039063c0 5.523437 4.480469 10.003906 10.003906 10.003906h90.035156v371.941407zm0 0"/><path d="m70.027344 121.050781c5.519531 0 10.003906 4.488281 10.003906 10.007813 0 5.523437 4.480469 10.003906 10.003906 10.003906 5.527344 0 10.007813-4.480469 10.007813-10.003906 0-16.550782-13.464844-30.015625-30.015625-30.015625-16.546875 0-30.011719 13.464843-30.011719 30.015625v40.015625c0 16.546875 13.464844 30.011719 30.011719 30.011719 16.550781 0 30.015625-13.464844 30.015625-30.011719 0-5.523438-4.480469-10.003907-10.007813-10.003907-5.523437 0-10.003906 4.480469-10.003906 10.003907 0 5.515625-4.484375 10.003906-10.003906 10.003906-5.515625 0-10.003906-4.488281-10.003906-10.003906v-40.015625c0-5.519532 4.488281-10.007813 10.003906-10.007813zm0 0"/><path d="m181.074219 170.824219c0-15.035157-11.683594-30.257813-34.015625-30.257813-9.519532 0-10.003906-8.128906-10.003906-9.757812s.484374-9.757813 10.003906-9.757813h13.09375c.648437 4.902344 4.839844 8.683594 9.917968 8.683594 5.523438 0 10.003907-4.480469 10.003907-10.003906v-8.683594c0-5.523437-4.480469-10.003906-10.003907-10.003906h-23.011718c-19.703125 0-30.011719 14.976562-30.011719 29.765625 0 14.792968 10.308594 29.765625 30.011719 29.765625 10.339844 0 14.007812 5.523437 14.007812 10.25 0 4.730469-3.667968 10.253906-14.007812 10.253906h-10.003906c-.128907-5.414063-4.558594-9.761719-10.003907-9.761719-5.523437 0-10.003906 4.480469-10.003906 10.003906v9.761719c0 5.523438 4.480469 10.003907 10.003906 10.003907h20.007813c22.332031 0 34.015625-15.222657 34.015625-30.261719zm0 0"/><path d="m178.054688 221.421875c-.609376-.25-1.242188-.441406-1.882813-.570313-1.289063-.261718-2.609375-.261718-3.898437 0-.644532.128907-1.273438.320313-1.871094.570313-.613282.25-1.191406.558594-1.730469.917969-.550781.359375-1.0625.78125-1.523437 1.242187-.460938.46875-.878907.980469-1.238282 1.519531-.359375.550782-.671875 1.132813-.921875 1.730469-.25.601563-.441406 1.230469-.570312 1.871094-.128907.648437-.199219 1.300781-.199219 1.960937 0 .648438.070312 1.300782.199219 1.949219.128906.640625.320312 1.273438.570312 1.871094.25.601563.5625 1.183594.921875 1.730469.359375.542968.777344 1.050781 1.238282 1.523437.460937.457031.972656.878907 1.523437 1.238281.539063.359376 1.117187.671876 1.730469.921876.597656.25 1.226562.4375 1.871094.570312.636718.128906 1.296874.199219 1.949218.199219.648438 0 1.308594-.070313 1.949219-.199219.640625-.132812 1.273437-.320312 1.882813-.570312.597656-.25 1.179687-.5625 1.71875-.921876.550781-.359374 1.0625-.78125 1.523437-1.238281.457031-.472656.878906-.980469 1.25-1.523437.347656-.550782.660156-1.128906.910156-1.730469.25-.597656.449219-1.230469.570313-1.871094.128906-.648437.199218-1.300781.199218-1.949219 0-.660156-.070312-1.3125-.199218-1.960937-.121094-.640625-.320313-1.269531-.5625-1.871094-.25-.601562-.558594-1.179687-.921875-1.730469-.367188-.539062-.789063-1.050781-1.25-1.519531-.457031-.460937-.96875-.882812-1.519531-1.242187-.539063-.359375-1.121094-.667969-1.71875-.917969zm0 0"/><path d="m230.09375 321.132812h200.082031c5.523438 0 10.003907-4.476562 10.003907-10.003906 0-5.523437-4.480469-10.003906-10.003907-10.003906h-200.082031c-5.523438 0-10.003906 4.480469-10.003906 10.003906 0 5.527344 4.480468 10.003906 10.003906 10.003906zm0 0"/><path d="m370.152344 341.144531h-140.058594c-5.523438 0-10.003906 4.476563-10.003906 10.003907 0 5.523437 4.480468 10.003906 10.003906 10.003906h140.058594c5.523437 0 10.003906-4.480469 10.003906-10.003906 0-5.527344-4.480469-10.003907-10.003906-10.003907zm0 0"/><path d="m370.152344 381.160156h-140.058594c-5.523438 0-10.003906 4.480469-10.003906 10.003906 0 5.523438 4.480468 10.003907 10.003906 10.003907h140.058594c5.523437 0 10.003906-4.480469 10.003906-10.003907 0-5.523437-4.480469-10.003906-10.003906-10.003906zm0 0"/><path d="m370.152344 421.070312h-200.082032c-5.523437 0-10.003906 4.476563-10.003906 10.003907 0 5.523437 4.480469 10.003906 10.003906 10.003906h200.082032c5.523437 0 10.003906-4.480469 10.003906-10.003906 0-5.527344-4.480469-10.003907-10.003906-10.003907zm0 0"/><path d="m206.085938 201.085938h20.007812c22.328125 0 34.011719-15.222657 34.011719-30.261719 0-15.035157-11.683594-30.257813-34.011719-30.257813-9.523438 0-10.003906-8.128906-10.003906-9.757812s.480468-9.757813 10.003906-9.757813h13.089844c.648437 4.902344 4.839844 8.683594 9.917968 8.683594 5.523438 0 10.003907-4.480469 10.003907-10.003906v-8.683594c0-5.523437-4.480469-10.003906-10.003907-10.003906h-23.007812c-19.703125 0-30.011719 14.976562-30.011719 29.765625 0 14.792968 10.308594 29.765625 30.011719 29.765625 10.335938 0 14.003906 5.523437 14.003906 10.25 0 4.730469-3.667968 10.253906-14.003906 10.253906h-10.007812c-.128907-5.414063-4.558594-9.761719-10-9.761719-5.527344 0-10.003907 4.480469-10.003907 10.003906v9.761719c0 5.523438 4.476563 10.003907 10.003907 10.003907zm0 0"/></svg>