<svg id="Capa_1" enable-background="new 0 0 512 512" height="512" viewBox="0 0 512 512" width="512" xmlns="http://www.w3.org/2000/svg"><g><g><path d="m453.31 460.125c0 24.508-19.907 44.375-44.464 44.375h-305.692c-24.557 0-44.464-19.867-44.464-44.375v-408.25c0-24.508 19.907-44.375 44.464-44.375h190.303c8.857 0 17.35 3.516 23.606 9.773l126.505 126.521c6.239 6.239 9.742 14.694 9.742 23.508z" fill="#f9f8f9"/><path d="m133.15 504.5h-30c-24.55 0-44.46-19.87-44.46-44.38v-408.24c0-24.51 19.91-44.38 44.46-44.38h30c-24.55 0-44.46 19.87-44.46 44.38v408.24c0 24.51 19.91 44.38 44.46 44.38z" fill="#e3e0e4"/><path d="m453.31 167.3v16.24h-115.96c-33.12 0-60.06-26.95-60.06-60.07v-115.97h16.17c8.85 0 17.35 3.52 23.6 9.77l126.51 126.52c6.24 6.24 9.74 14.7 9.74 23.51z" fill="#e3e0e4"/><path d="m450.32 153.54h-112.97c-16.6 0-30.06-13.46-30.06-30.07v-112.96c3.61 1.63 6.92 3.91 9.77 6.76l126.51 126.52c2.85 2.85 5.12 6.15 6.75 9.75z" fill="#9ec8fc"/><path d="m435 438.5h-358c-22.091 0-40-17.909-40-40v-146c0-22.091 17.909-40 40-40h358c22.091 0 40 17.909 40 40v146c0 22.091-17.909 40-40 40z" fill="#9ec8fc"/><path d="m102 438.5h-25c-22.09 0-40-17.91-40-40v-146c0-22.09 17.91-40 40-40h25c-22.09 0-40 17.91-40 40v146c0 22.09 17.91 40 40 40z" fill="#62a4fb"/></g><g><path d="m460.81 212.656v-45.354c0-10.88-4.24-21.111-11.938-28.811l-126.505-126.52c-7.719-7.72-17.985-11.971-28.91-11.971h-190.303c-28.653 0-51.964 23.271-51.964 51.875v90.259c0 4.143 3.358 7.5 7.5 7.5s7.5-3.357 7.5-7.5v-90.259c0-20.333 16.582-36.875 36.964-36.875h190.303c2.144 0 4.273.274 6.334.798v66.939c0 4.143 3.358 7.5 7.5 7.5s7.5-3.357 7.5-7.5v-57.128l120.413 120.428h-97.853c-12.439 0-22.56-10.123-22.56-22.566v-5.733c0-4.143-3.358-7.5-7.5-7.5s-7.5 3.357-7.5 7.5v5.733c0 20.714 16.85 37.566 37.56 37.566h107.694c.505 2.025.765 4.125.765 6.265v38.954c-3.475-.813-7.091-1.256-10.81-1.256h-26.787c-4.142 0-7.5 3.357-7.5 7.5s3.358 7.5 7.5 7.5h26.787c17.92 0 32.5 14.579 32.5 32.5v146c0 17.921-14.58 32.5-32.5 32.5h-262.859c-4.142 0-7.5 3.357-7.5 7.5s3.358 7.5 7.5 7.5h262.859c3.719 0 7.335-.443 10.81-1.256v15.381c0 20.333-16.582 36.875-36.964 36.875h-305.692c-20.382 0-36.964-16.542-36.964-36.875v-15.381c3.475.813 7.091 1.256 10.81 1.256h60.141c4.142 0 7.5-3.357 7.5-7.5s-3.358-7.5-7.5-7.5h-60.141c-17.92 0-32.5-14.579-32.5-32.5v-146c0-17.921 14.58-32.5 32.5-32.5h296.213c4.142 0 7.5-3.357 7.5-7.5s-3.358-7.5-7.5-7.5h-296.213c-3.719 0-7.335.443-10.81 1.256v-29.122c0-4.143-3.358-7.5-7.5-7.5s-7.5 3.357-7.5 7.5v35.522c-13.041 8.476-21.69 23.165-21.69 39.844v146c0 16.679 8.649 31.368 21.69 39.845v21.78c0 28.604 23.311 51.875 51.964 51.875h305.692c28.653 0 51.964-23.271 51.964-51.875v-21.78c13.041-8.477 21.69-23.166 21.69-39.845v-146c0-16.679-8.649-31.368-21.69-39.844z"/><path d="m339.044 274.263c-.028.086-.054.172-.079.259l-22.936 80.458-23.762-80.54c-.026-.09-.054-.179-.084-.267-1.414-4.209-5.5-6.939-9.927-6.645-4.431.297-8.111 3.55-8.966 7.996l-17.752 98.354c-.736 4.076 1.973 7.978 6.049 8.713 4.078.73 7.977-1.972 8.713-6.049l13.835-76.659 22.624 76.684c.026.09.054.179.084.267 1.341 3.993 5.063 6.666 9.271 6.666h.05c4.229-.021 7.948-2.738 9.254-6.761.028-.087.055-.173.08-.261l21.848-76.641 14.673 76.781c.778 4.069 4.708 6.75 8.774 5.958 4.069-.777 6.736-4.705 5.959-8.774l-18.82-98.475c-.887-4.35-4.602-7.563-9.034-7.813-4.448-.253-8.484 2.527-9.854 6.749z"/><path d="m399.386 267.5c-4.142 0-7.5 3.357-7.5 7.5v100.915c0 3.653 2.632 6.774 6.232 7.393.53.091 1.146.196 12.132.196 5.339 0 13.128-.025 24.544-.089 4.142-.023 7.481-3.399 7.458-7.542-.023-4.128-3.376-7.458-7.499-7.458-.014 0-.029 0-.043 0-8.322.047-20.295.093-27.825.084v-93.499c.001-4.143-3.357-7.5-7.499-7.5z"/><path d="m147.141 383.5c4.142 0 7.5-3.357 7.5-7.5v-101c0-4.143-3.358-7.5-7.5-7.5s-7.5 3.357-7.5 7.5v41.268h-54.894v-41.268c0-4.143-3.358-7.5-7.5-7.5s-7.5 3.357-7.5 7.5v101c0 4.143 3.358 7.5 7.5 7.5s7.5-3.357 7.5-7.5v-44.732h54.894v44.732c0 4.143 3.358 7.5 7.5 7.5z"/><path d="m204.917 383.5c4.142 0 7.5-3.357 7.5-7.5v-93.5h20.502c4.142 0 7.5-3.357 7.5-7.5s-3.358-7.5-7.5-7.5h-55.778c-4.142 0-7.5 3.357-7.5 7.5s3.358 7.5 7.5 7.5h20.276v93.5c0 4.143 3.357 7.5 7.5 7.5z"/></g></g></svg>