<svg height="512pt" viewBox="-40 0 512 512.00035" width="512pt" xmlns="http://www.w3.org/2000/svg"><path d="m313.039062 8.074219h-241.460937c-11.035156 0-19.984375 8.945312-19.984375 19.980469v456.472656c0 11.035156 8.949219 19.980468 19.984375 19.980468h333.390625c11.035156 0 19.980469-8.945312 19.980469-19.980468v-372.921875zm0 0" fill="#e7e7e7"/><path d="m424.953125 111.605469v372.925781c0 11.027344-8.949219 19.980469-19.980469 19.980469h-26.046875c11.039063 0 19.980469-8.953125 19.980469-19.980469v-397.019531zm0 0" fill="#cecece"/><path d="m313.039062 8.074219v83.832031c0 11.035156 8.945313 19.980469 19.980469 19.980469h91.929688zm0 0" fill="#acacac"/><path d="m258.421875 257.558594h-232.023437c-10.441407 0-18.90625-8.464844-18.90625-18.90625v-89.492188c0-10.441406 8.464843-18.90625 18.90625-18.90625h232.023437c10.441406 0 18.90625 8.464844 18.90625 18.90625v89.492188c0 10.441406-8.464844 18.90625-18.90625 18.90625zm0 0" fill="#ff6b81"/><path d="m277.324219 149.164062v89.492188c0 10.441406-8.460938 18.902344-18.902344 18.902344h-20.152344c10.441407 0 18.902344-8.460938 18.902344-18.902344v-89.492188c0-10.441406-8.460937-18.914062-18.902344-18.914062h20.152344c10.441406 0 18.902344 8.472656 18.902344 18.914062zm0 0" fill="#ff435f"/><path d="m430.039062 106.105469c-14.675781-13.582031-29.355468-27.15625-44.03125-40.734375-20.183593-18.671875-40.820312-36.964844-60.601562-56.0625-6.859375-6.625-9.035156-8.597656-19.070312-8.867188-13.667969-.3671872-27.34375-.457031-41.015626-.43749975-27.363281.03515625-54.71875.57812475-82.082031.57812475-37.222656 0-74.441406 0-111.660156 0-15.152344 0-27.476563 12.324219-27.476563 27.472657v21.890624c0 4.140626 3.355469 7.492188 7.492188 7.492188 4.140625 0 7.496094-3.351562 7.496094-7.492188v-21.890624c0-6.886719 5.601562-12.488282 12.488281-12.488282h233.96875v76.339844c0 15.148438 12.324219 27.472656 27.472656 27.472656h84.4375v365.148438c0 6.886718-5.601562 12.488281-12.488281 12.488281h-333.390625c-6.886719 0-12.488281-5.601563-12.488281-12.488281v-219.476563h126.164062c4.136719 0 7.492188-3.351562 7.492188-7.492187s-3.355469-7.492188-7.492188-7.492188h-158.855468c-6.292969 0-11.414063-5.121094-11.414063-11.414062v-89.492188c0-6.292968 5.121094-11.414062 11.414063-11.414062h232.023437c6.292969 0 11.414063 5.121094 11.414063 11.414062v89.492188c0 6.292968-5.121094 11.414062-11.414063 11.414062h-26.878906c-4.140625 0-7.492188 3.351563-7.492188 7.492188s3.351563 7.492187 7.492188 7.492187h26.878906c14.558594 0 26.398437-11.839843 26.398437-26.398437v-89.492188c0-14.558594-11.839843-26.402344-26.398437-26.402344h-199.332031v-27.289062c0-4.136719-3.355469-7.492188-7.496094-7.492188-4.136719 0-7.492188 3.355469-7.492188 7.492188v27.289062h-17.703124c-14.554688 0-26.398438 11.84375-26.398438 26.402344v89.492188c0 14.554687 11.84375 26.398437 26.398438 26.398437h17.703124v219.476563c0 15.148437 12.324219 27.472656 27.476563 27.472656h333.390625c15.148438 0 27.472656-12.324219 27.472656-27.472656v-372.921875c0-2.089844-.871094-4.082031-2.402344-5.5zm-97.019531-1.710938c-6.886719 0-12.488281-5.601562-12.488281-12.488281v-66.660156l85.324219 79.148437zm0 0"/><path d="m94.128906 209.460938c0-17.230469-31.632812-10.511719-31.632812-33.871094 0-14.40625 12.066406-18.6875 22.480468-18.6875 6.328126 0 17.714844 1.652344 17.714844 7.007812 0 1.945313-1.359375 5.546875-4.28125 5.546875-2.628906 0-5.160156-3.699219-13.433594-3.699219-7.105468 0-12.167968 2.726563-12.167968 8.859376 0 14.402343 31.636718 7.882812 31.636718 33.773437 0 13.917969-9.34375 20.730469-22.191406 20.730469-12.65625 0-21.511718-6.617188-21.511718-11.484375 0-2.335938 2.042968-5.546875 4.476562-5.546875 3.503906 0 5.839844 7.6875 16.644531 7.6875 7.007813 0 12.265625-3.308594 12.265625-10.316406zm0 0"/><path d="m109.113281 162.351562c-.097656-.292968-.097656-.582031-.097656-.875 0-2.53125 3.605469-4.285156 6.425781-4.285156 1.75 0 3.113282.585938 3.601563 2.144532l16.058593 55.476562 15.964844-55.476562c.488282-1.558594 1.847656-2.144532 3.503906-2.144532 2.917969 0 6.519532 1.851563 6.519532 4.285156 0 .292969-.09375.582032-.195313.875l-19.269531 63.070313c-.683594 2.339844-3.601562 3.503906-6.523438 3.503906-2.917968 0-5.742187-1.167969-6.519531-3.503906zm0 0"/><path d="m189.898438 166.34375c-7.300782 0-11.484376 3.988281-11.484376 12.554688v28.324218c0 8.566406 4.183594 12.554688 11.484376 12.554688 7.203124 0 11.582031-3.988282 11.582031-12.554688v-7.980468h-9.832031c-2.140626 0-3.308594-2.046876-3.308594-4.1875 0-1.945313 1.167968-4.085938 3.308594-4.085938h16.742187c2.140625 0 3.40625 1.652344 3.40625 3.5v12.75c0 15.769531-9.636719 21.707031-21.898437 21.707031-12.363282 0-21.804688-5.9375-21.804688-21.707031v-28.324219c0-15.765625 9.636719-21.703125 21.511719-21.703125 13.042969 0 22.191406 7.007813 22.191406 18.007813 0 3.988281-1.75 4.964843-5.160156 4.964843-2.722657 0-5.058594-.878906-5.15625-3.410156-.585938-5.640625-3.113281-10.410156-11.582031-10.410156zm0 0"/></svg>